<svg xmlns="http://www.w3.org/2000/svg" viewBox="0 0 99.2 83.86"><defs><style>.cls-1,.cls-2,.cls-3,.cls-4{fill:none;stroke:#95a3d2;stroke-miterlimit:10;}.cls-1{stroke-width:2px;}.cls-3,.cls-4{stroke-linecap:round;}.cls-4{stroke-width:1.5px;}</style></defs><g id="Layer_5" data-name="Layer 5"><path class="cls-1" d="M73.44,31.67H8.62c-4,0-7.22,2.85-7.22,6.36V92c0,3.51,3.23,6.36,7.22,6.36H91.38c4,0,7.22-2.85,7.22-6.36V38c0-3.51-3.23-6.36-7.22-6.36H88.22" transform="translate(-0.4 -15.54)"/><polyline class="cls-2" points="66.92 23.45 22.89 23.45 22.89 74.93 89.61 74.93 89.61 23.45 81.79 23.45"/><rect class="cls-3" x="7.36" y="23.45" width="9.61" height="51.47"/><line class="cls-2" x1="7.36" y1="49.19" x2="16.97" y2="49.19"/><line class="cls-2" x1="7.36" y1="36.24" x2="16.97" y2="36.24"/><line class="cls-2" x1="7.36" y1="62.13" x2="16.97" y2="62.13"/></g><g id="Layer_6" data-name="Layer 6"><path class="cls-4" d="M75.75,11.49h0a5.7,5.7,0,0,1,5.7,5.7V64.1a0,0,0,0,1,0,0H70a0,0,0,0,1,0,0V17.2a5.7,5.7,0,0,1,5.7-5.7Z" transform="translate(41.47 -55.32) rotate(39.89)"/><polyline class="cls-4" points="62.41 46.64 52.5 49.43 53.51 39.5"/><line class="cls-4" x1="52.5" y1="49.43" x2="49.6" y2="52.9"/><path class="cls-4" d="M71.58,31.67" transform="translate(-0.4 -15.54)"/><path class="cls-4" d="M90.35,31.67" transform="translate(-0.4 -15.54)"/></g></svg>