<svg id="Layer_6" data-name="Layer 6" xmlns="http://www.w3.org/2000/svg" viewBox="0 0 116.01 111.76"><defs><style>.cls-1,.cls-3{fill:#696969;}.cls-2,.cls-3{isolation:isolate;}.cls-3{font-size:31.46px;font-family:Poppins-Regular, Poppins;}</style></defs><path class="cls-1" d="M38.15,69.85c-1.25,0-1.87-.83-1.87-2.48a6.18,6.18,0,0,1,1.46-3.84,4,4,0,0,1,3-1.84c1.26,0,1.89.82,1.89,2.47A6.06,6.06,0,0,1,41.2,68,4,4,0,0,1,38.15,69.85Zm1-.93a1.88,1.88,0,0,0,1.6-1.06,5.05,5.05,0,0,0,.64-2.65c0-1.73-.53-2.59-1.61-2.59a1.85,1.85,0,0,0-1.59,1.06,5.08,5.08,0,0,0-.64,2.65C37.55,68.05,38.08,68.92,39.15,68.92Z" transform="translate(-1.1 9.08)"/><path class="cls-1" d="M45.84,69.34l-1.24.51,0-.24.07-.61.07-.58.43-3.85.05-.44c0-.35,0-.62,0-.83s-.09-.53-.27-.53c-.41,0-.86.47-1.34,1.41-.12-.11-.19-.2-.19-.28,0-.33.31-.78.91-1.35a2.51,2.51,0,0,1,1.44-.86c.47,0,.71.3.71.91a5.4,5.4,0,0,1,0,.62l-.07.68-.07.56-.06.59a10.77,10.77,0,0,1,2.14-2.41,3.39,3.39,0,0,1,2-1c.54,0,.8.37.8,1.12a8.24,8.24,0,0,1-.08,1l-.45,3.09a9.54,9.54,0,0,0-.14,1.47c0,.28.08.43.23.43.38,0,.86-.51,1.42-1.52.13.08.2.17.2.26q0,.54-.93,1.41a2.55,2.55,0,0,1-1.51.88c-.43,0-.65-.31-.65-.93A13.66,13.66,0,0,1,49.51,67l.29-2a12.15,12.15,0,0,0,.14-1.55c0-.44-.15-.65-.46-.65a2.94,2.94,0,0,0-2.15,1.44,6.23,6.23,0,0,0-1.27,3.09Z" transform="translate(-1.1 9.08)"/><path class="cls-1" d="M58.34,66.34a10.39,10.39,0,0,1-2.06,2.52,3.19,3.19,0,0,1-2,1c-.76,0-1.13-.61-1.13-1.84a6.34,6.34,0,0,1,1.65-4.37,5.11,5.11,0,0,1,3.92-1.84,4.48,4.48,0,0,1,1.47.21l-.05.18-.1.44c-.06.31-.1.48-.1.53l-.54,3.67-.07.53a10.5,10.5,0,0,0-.11,1q0,.36.21.36c.46,0,.93-.52,1.42-1.55.15.08.22.17.22.26a2.8,2.8,0,0,1-.71,1.17,2.59,2.59,0,0,1-1.8,1.2c-.41,0-.61-.27-.61-.82a5.64,5.64,0,0,1,.06-.69l.08-.66.11-.73Zm.48-3.29a3.15,3.15,0,0,0-1.53-.42A2.26,2.26,0,0,0,55.34,64a7.13,7.13,0,0,0-.79,3.52c0,.72.21,1.08.64,1.08A2.81,2.81,0,0,0,57,67.51a6.43,6.43,0,0,0,1.71-3.57Z" transform="translate(-1.1 9.08)"/><path class="cls-1" d="M64.51,62.87l-.4,3.67C64,67.19,64,67.68,64,68c0,.62.21.93.64.93s.93-.37,1.42-1.12a.42.42,0,0,1,.13.28c0,.31-.28.68-.82,1.11a2.46,2.46,0,0,1-1.41.65c-.78,0-1.18-.51-1.18-1.51,0-.37,0-1,.14-1.8l.4-3.67H61.58l1-1h.88l.18-1.51,1.22-.4-.2,1.91h3.52l-1,1Z" transform="translate(-1.1 9.08)"/><path class="cls-1" d="M70.1,65.05a10.73,10.73,0,0,1,2.13-2.41,3.41,3.41,0,0,1,2-1c.54,0,.81.37.81,1.12a9.34,9.34,0,0,1-.1,1l-.44,3.09a9.54,9.54,0,0,0-.14,1.47c0,.28.08.43.23.43.38,0,.85-.51,1.41-1.52.14.08.21.17.21.26q0,.54-.93,1.41a2.55,2.55,0,0,1-1.51.88c-.43,0-.65-.31-.65-.93A13.66,13.66,0,0,1,73.3,67l.28-2a10.93,10.93,0,0,0,.15-1.56c0-.43-.16-.64-.46-.64a2.92,2.92,0,0,0-2.15,1.44,6.32,6.32,0,0,0-1.27,3.09l-.22,2-1.24.51,0-.24.07-.61.06-.58.81-7.28a7.71,7.71,0,0,1,1.91-4.39,4.76,4.76,0,0,1,3.62-1.83,3.57,3.57,0,0,1,.8.09l-1.22,1.2a2.89,2.89,0,0,0-.89-.14c-1.65,0-2.61,1.28-2.9,3.85Z" transform="translate(-1.1 9.08)"/><path class="cls-1" d="M82.13,66.34a10.39,10.39,0,0,1-2.06,2.52,3.19,3.19,0,0,1-1.95,1c-.76,0-1.13-.61-1.13-1.84a6.34,6.34,0,0,1,1.65-4.37,5.11,5.11,0,0,1,3.92-1.84A4.48,4.48,0,0,1,84,62l0,.18-.1.44c-.06.31-.1.48-.1.53l-.54,3.67-.07.53a10.5,10.5,0,0,0-.11,1q0,.36.21.36c.46,0,.93-.52,1.42-1.55.15.08.22.17.22.26a2.8,2.8,0,0,1-.71,1.17,2.59,2.59,0,0,1-1.8,1.2c-.41,0-.61-.27-.61-.82a5.64,5.64,0,0,1,.06-.69l.08-.66L82,67Zm.48-3.29a3.15,3.15,0,0,0-1.53-.42,2.26,2.26,0,0,0-2,1.41,7.13,7.13,0,0,0-.79,3.52c0,.72.21,1.08.64,1.08a2.81,2.81,0,0,0,1.78-1.13,6.43,6.43,0,0,0,1.71-3.57Z" transform="translate(-1.1 9.08)"/><path class="cls-1" d="M88,69.34l-1.24.51,0-.24L86.8,69l.06-.58.44-3.85,0-.44c0-.35.05-.62.05-.83s-.09-.53-.27-.53c-.42,0-.86.47-1.34,1.41-.13-.11-.19-.2-.19-.28,0-.33.31-.78.91-1.35A2.51,2.51,0,0,1,88,61.69c.47,0,.71.3.71.91a5.4,5.4,0,0,1,0,.62l-.07.68-.07.56-.07.59a11,11,0,0,1,2.15-2.41,3.39,3.39,0,0,1,2-1c.54,0,.8.37.8,1.12a8.24,8.24,0,0,1-.08,1l-.45,3.09a9.54,9.54,0,0,0-.14,1.47c0,.28.08.43.23.43.38,0,.85-.51,1.42-1.52a.33.33,0,0,1,.19.26c0,.36-.3.83-.92,1.41a2.55,2.55,0,0,1-1.51.88c-.43,0-.65-.31-.65-.93A13.66,13.66,0,0,1,91.62,67l.29-2a12.15,12.15,0,0,0,.14-1.55c0-.44-.15-.65-.46-.65a2.94,2.94,0,0,0-2.15,1.44,6.14,6.14,0,0,0-1.27,3.09Z" transform="translate(-1.1 9.08)"/><g id="MA" class="cls-2"><text class="cls-3" transform="translate(39 60.87) scale(1.01 1)">MA</text><text x="-1.1" y="9.08"/></g><path class="cls-1" d="M18,38.36l-5.77,5.52a19.43,19.43,0,0,1-.82-5.49,18,18,0,0,1,6.79-14.65q6.78-5.52,18-5.52H39q-1.59,8.12-1.91,10.9L34,57.25q-1.41,12.54-6.78,18.16a19.42,19.42,0,0,1-14.53,6.37q-8,0-11.59-7.86L6.76,69.6q1.77,9.06,9.94,9.06a8.48,8.48,0,0,0,7.57-3.85Q26.82,71,27.81,61.75L32.16,22.5h-1.1q-14.7,0-14.71,9.74A12.77,12.77,0,0,0,18,38.36Z" transform="translate(-1.1 9.08)"/></svg>