<svg id="Layer_4" data-name="Layer 4" xmlns="http://www.w3.org/2000/svg" viewBox="0 0 94.93 99.58"><defs><style>.cls-1,.cls-2,.cls-3,.cls-4{fill:none;stroke:#b498c7;}.cls-1,.cls-2,.cls-3{stroke-miterlimit:10;}.cls-1{stroke-width:3px;}.cls-2{stroke-width:2px;}.cls-3,.cls-4{stroke-linecap:round;stroke-width:1.5px;}.cls-4{stroke-linejoin:round;}</style></defs><line class="cls-1" x1="21.42" y1="34.21" x2="41.72" y2="22.03"/><line class="cls-1" x1="41.51" y1="52.57" x2="22" y2="39.79"/><line class="cls-1" x1="53.14" y1="52.57" x2="72.4" y2="39.79"/><line class="cls-1" x1="73.04" y1="34.56" x2="52.48" y2="22.03"/><ellipse class="cls-2" cx="15.96" cy="37.21" rx="6.04" ry="5.96"/><ellipse class="cls-2" cx="47.09" cy="19.2" rx="6.04" ry="5.96"/><ellipse class="cls-2" cx="47.09" cy="55.9" rx="6.04" ry="5.96"/><ellipse class="cls-2" cx="78.44" cy="37.21" rx="6.04" ry="5.96"/><ellipse class="cls-2" cx="15.96" cy="73.97" rx="6.04" ry="5.96"/><ellipse class="cls-2" cx="79.08" cy="73.97" rx="6.04" ry="5.96"/><ellipse class="cls-2" cx="47.09" cy="92.62" rx="6.04" ry="5.96"/><line class="cls-1" x1="41.05" y1="90.15" x2="21.42" y2="77.36"/><line class="cls-1" x1="53.14" y1="90.67" x2="73.67" y2="76.63"/><line class="cls-1" x1="15.36" y1="43.57" x2="15.36" y2="67.23"/><line class="cls-1" x1="47.09" y1="62.14" x2="47.09" y2="85.8"/><line class="cls-1" x1="79.08" y1="43.16" x2="79.08" y2="67.73"/><line class="cls-3" x1="47.09" y1="1.88" x2="47.09" y2="9.51"/><polyline class="cls-4" points="44.68 3.17 47.09 0.75 49.51 3.17"/><line class="cls-3" x1="93.28" y1="84.55" x2="87.21" y2="79.93"/><polyline class="cls-4" points="93.72 81.85 94.18 85.24 90.8 85.7"/><line class="cls-3" x1="1.65" y1="84.66" x2="7.72" y2="80.04"/><polyline class="cls-4" points="1.21 81.96 0.75 85.34 4.13 85.8"/></svg>