<svg id="Layer_4" data-name="Layer 4" xmlns="http://www.w3.org/2000/svg" viewBox="0 0 99.58 83.97"><defs><style>.cls-1,.cls-2,.cls-3,.cls-4{fill:none;stroke:#b498c7;}.cls-1,.cls-2,.cls-3{stroke-miterlimit:10;}.cls-1{stroke-width:3px;}.cls-2{stroke-width:2px;}.cls-3,.cls-4{stroke-linecap:round;stroke-width:1.5px;}.cls-4{stroke-linejoin:round;}</style></defs><line class="cls-1" x1="22.45" y1="28.87" x2="43.75" y2="18.64"/><line class="cls-1" x1="43.53" y1="44.31" x2="23.06" y2="33.57"/><line class="cls-1" x1="55.74" y1="44.31" x2="75.96" y2="33.57"/><line class="cls-1" x1="76.63" y1="29.17" x2="55.05" y2="18.64"/><ellipse class="cls-2" cx="16.71" cy="31.39" rx="6.34" ry="5.01"/><ellipse class="cls-2" cx="49.4" cy="16.26" rx="6.34" ry="5.01"/><ellipse class="cls-2" cx="49.4" cy="47.11" rx="6.34" ry="5.01"/><ellipse class="cls-2" cx="82.31" cy="31.39" rx="6.34" ry="5.01"/><ellipse class="cls-2" cx="16.71" cy="62.29" rx="6.34" ry="5.01"/><ellipse class="cls-2" cx="82.97" cy="62.29" rx="6.34" ry="5.01"/><ellipse class="cls-2" cx="49.4" cy="77.96" rx="6.34" ry="5.01"/><line class="cls-1" x1="43.05" y1="75.89" x2="22.45" y2="65.14"/><line class="cls-1" x1="55.74" y1="76.33" x2="77.29" y2="64.52"/><line class="cls-1" x1="16.09" y1="36.74" x2="16.09" y2="56.63"/><line class="cls-1" x1="49.4" y1="52.35" x2="49.4" y2="72.24"/><line class="cls-1" x1="82.97" y1="36.4" x2="82.97" y2="57.05"/><line class="cls-3" x1="49.4" y1="1.7" x2="49.4" y2="8.11"/><polyline class="cls-4" points="46.86 2.78 49.4 0.75 51.93 2.78"/><line class="cls-3" x1="97.88" y1="71.18" x2="91.51" y2="67.3"/><polyline class="cls-4" points="98.34 68.91 98.83 71.76 95.27 72.14"/><line class="cls-3" x1="1.7" y1="71.27" x2="8.07" y2="67.39"/><polyline class="cls-4" points="1.23 69 0.75 71.85 4.3 72.23"/></svg>