<svg id="Layer_4" data-name="Layer 4" xmlns="http://www.w3.org/2000/svg" viewBox="0 0 80.03 83.97"><defs><style>.cls-1,.cls-2,.cls-3,.cls-4{fill:none;stroke:#b498c7;}.cls-1,.cls-2,.cls-3{stroke-miterlimit:10;}.cls-1{stroke-width:3px;}.cls-2{stroke-width:2px;}.cls-3,.cls-4{stroke-linecap:round;stroke-width:1.5px;}.cls-4{stroke-linejoin:round;}</style></defs><line class="cls-1" x1="18.12" y1="28.87" x2="35.18" y2="18.64"/><line class="cls-1" x1="35.01" y1="44.31" x2="18.61" y2="33.57"/><line class="cls-1" x1="44.78" y1="44.31" x2="60.97" y2="33.57"/><line class="cls-1" x1="61.5" y1="29.17" x2="44.23" y2="18.64"/><ellipse class="cls-2" cx="13.53" cy="31.39" rx="5.08" ry="5.01"/><ellipse class="cls-2" cx="39.7" cy="16.26" rx="5.08" ry="5.01"/><ellipse class="cls-2" cx="39.7" cy="47.11" rx="5.08" ry="5.01"/><ellipse class="cls-2" cx="66.05" cy="31.39" rx="5.08" ry="5.01"/><ellipse class="cls-2" cx="13.53" cy="62.29" rx="5.08" ry="5.01"/><ellipse class="cls-2" cx="66.59" cy="62.29" rx="5.08" ry="5.01"/><ellipse class="cls-2" cx="39.7" cy="77.96" rx="5.08" ry="5.01"/><line class="cls-1" x1="34.62" y1="75.89" x2="18.12" y2="65.14"/><line class="cls-1" x1="44.78" y1="76.33" x2="62.04" y2="64.52"/><line class="cls-1" x1="13.03" y1="36.74" x2="13.03" y2="56.63"/><line class="cls-1" x1="39.7" y1="52.35" x2="39.7" y2="72.24"/><line class="cls-1" x1="66.59" y1="36.4" x2="66.59" y2="57.05"/><line class="cls-3" x1="39.7" y1="1.7" x2="39.7" y2="8.11"/><polyline class="cls-4" points="37.67 2.78 39.7 0.75 41.73 2.78"/><line class="cls-3" x1="78.52" y1="71.18" x2="73.42" y2="67.3"/><polyline class="cls-4" points="78.89 68.91 79.28 71.76 76.43 72.14"/><line class="cls-3" x1="1.51" y1="71.27" x2="6.61" y2="67.39"/><polyline class="cls-4" points="1.14 69 0.75 71.85 3.6 72.23"/></svg>